# xmcd CD database file
#
# Track frame offsets:
#	150
#	20286
#	31283
#	45703
#	58273
#	68742
#	79155
#	93934
#	104977
#	117718
#	130128
#	161792
#	180840
#	196075
#	207133
#	219259
#	233135
#	246126
#	262134
#	276759
#
# Disc length: 3914 seconds
#
# Revision: 6
# Processed by: cddbd v1.5.2PL0 Copyright (c) Steve Scherf et al.
# Submitted via: CDex 1.70beta2
#
DISCID=200f4814
DTITLE=The Animals - The Best Of The Animals
DYEAR=2002
DGENRE=Rock
TTITLE0=The House Of The Rising Sun
TTITLE1=Don't Let Me Be Misunderstood
TTITLE2=We've Gotta Get Out Of This Place
TTITLE3=Roadrunner
TTITLE4=Baby Let Me Take You Home
TTITLE5=Club A Go Go
TTITLE6=Boom Boom
TTITLE7=Gonna Send You Back To Walker
TTITLE8=Dimples
TTITLE9=I'm Crying
TTITLE10=Talkin' 'bout You (Full Version)
TTITLE11=I'm Mad Again
TTITLE12=I Believe To My Soul
TTITLE13=I Ain't Got You
TTITLE14=Bring It On Home To Me
TTITLE15=It's My Life
TTITLE16=Bright Lights Big City
TTITLE17=I'm Gonna Change The World
TTITLE18=Don't Bring Me Down
TTITLE19=Inside-Looking Out
EXTD=YEAR: 2002
EXTT0=
EXTT1=
EXTT2=
EXTT3=
EXTT4=
EXTT5=
EXTT6=
EXTT7=
EXTT8=
EXTT9=
EXTT10=
EXTT11=
EXTT12=
EXTT13=
EXTT14=
EXTT15=
EXTT16=
EXTT17=
EXTT18=
EXTT19=
PLAYORDER=
